<svg width="24" height="25" viewBox="0 0 24 25" fill="none" xmlns="http://www.w3.org/2000/svg">
<path d="M12.1651 12.5001L2.58456 21.8433L2.5845 21.8434C2.55823 21.8693 2.5249 21.8869 2.48868 21.8939C2.45247 21.9009 2.41498 21.8971 2.38093 21.8829C2.34687 21.8687 2.31777 21.8448 2.29725 21.8141C2.27674 21.7835 2.26574 21.7475 2.26562 21.7106L2.26562 3.28876C2.26574 3.25188 2.27675 3.21585 2.29725 3.18519C2.31777 3.15453 2.34687 3.13061 2.38093 3.11642C2.41498 3.10224 2.45247 3.09842 2.48868 3.10545C2.5249 3.11249 2.55823 3.13005 2.5845 3.15595L2.58456 3.15601L12.1651 12.5001ZM4.17465 2.04383L16.1832 8.6598L13.3683 11.3502L3.95114 2.34559C3.95114 2.34559 3.95113 2.34559 3.95113 2.34558C3.87282 2.27029 3.87868 2.16828 3.92894 2.09704C3.97914 2.02588 4.07184 1.98786 4.16723 2.03965L4.17453 2.04376L4.17465 2.04383ZM4.17558 22.9565L4.17546 22.9565L4.1682 22.9606C4.16817 22.9606 4.16814 22.9606 4.16812 22.9607C4.07225 23.0124 3.97934 22.9743 3.92917 22.9032C3.87894 22.832 3.87327 22.73 3.95205 22.6547L13.3683 13.6491L16.1832 16.3405L4.17558 22.9565ZM14.5707 12.5001L17.7086 9.4978L21.0571 11.3419C21.96 11.8408 21.96 13.1594 21.0572 13.6583C21.0571 13.6583 21.0571 13.6583 21.0571 13.6583L17.7086 15.5011L14.5707 12.5001Z" fill="#1B1E1D" stroke="#1B1E1D" stroke-width="0.03125"/>
</svg>
