<svg width="25" height="25" viewBox="0 0 25 25" fill="none" xmlns="http://www.w3.org/2000/svg">
<g clip-path="url(#clip0_1338_461)">
<path d="M8.81056 6.54121C6.83262 6.57009 5.01012 7.69078 3.9905 9.46078C1.93794 13.025 3.46662 18.3052 5.46687 21.1972L8.81056 6.54121ZM8.81056 6.54121C9.66359 6.52495 10.4895 6.8525 11.2124 7.13922C11.7646 7.35819 12.2566 7.55334 12.6549 7.55334C13.0118 7.55334 13.4904 7.36456 14.0486 7.14439C14.9277 6.79761 16.0043 6.37295 17.114 6.48534L8.81056 6.54121ZM18.7947 13.229V13.229C18.8112 15.0118 19.594 16.2016 20.3769 16.9465C20.7679 17.3186 21.1589 17.5797 21.4544 17.7488C21.6021 17.8333 21.7262 17.895 21.8145 17.936C21.8513 17.9531 21.883 17.9671 21.9072 17.9775C21.813 18.2806 21.3402 19.7285 20.32 21.2192L20.3716 21.2545L20.32 21.2192C19.834 21.9296 19.343 22.632 18.7771 23.1611C18.2125 23.689 17.5778 24.04 16.8046 24.0544C16.0565 24.0681 15.5578 23.8523 15.028 23.6231L14.9922 23.6077C14.447 23.372 13.8661 23.1293 12.9612 23.1293C12.0575 23.1293 11.4634 23.3569 10.9139 23.5892C10.8752 23.6056 10.8368 23.622 10.7985 23.6383C10.294 23.853 9.81628 24.0564 9.14242 24.0829C8.40024 24.1111 7.74107 23.7399 7.14112 23.1776C6.54106 22.6151 6.0081 21.8689 5.51828 21.1616C4.52331 19.7231 3.64451 17.6884 3.27043 15.5702C2.89626 13.4514 3.02831 11.2568 4.04466 9.49197C5.05402 7.73979 6.85699 6.63224 8.81147 6.60371L8.81175 6.6037C9.5505 6.58962 10.2714 6.8382 10.9293 7.09475C11.0166 7.12879 11.1029 7.16302 11.188 7.19678C11.4219 7.28953 11.6467 7.37869 11.8577 7.45034C12.1453 7.54804 12.4144 7.61584 12.6549 7.61584C12.8964 7.61584 13.1856 7.53407 13.5053 7.41946C13.682 7.35612 13.873 7.2808 14.0733 7.20182C14.234 7.13844 14.4007 7.07272 14.5707 7.00895C15.3423 6.71954 16.2158 6.45719 17.1077 6.54752L17.1077 6.54763L17.1114 6.54779C17.8571 6.57889 19.9321 6.8469 21.2855 8.77743C20.8992 9.01932 18.7698 10.4533 18.7947 13.229ZM15.8778 4.53247L15.8778 4.53248C15.0837 5.49406 13.791 6.23855 12.526 6.1627C12.3742 4.86505 13.0163 3.51151 13.7535 2.65942L13.7537 2.65913C14.5708 1.7029 15.9398 0.986319 17.0815 0.918404C17.2068 2.24244 16.6713 3.57201 15.8778 4.53247Z" fill="#1B1E1D" stroke="#1B1E1D" stroke-width="0.125"/>
</g>
<defs>
<clipPath id="clip0_1338_461">
<rect width="24" height="24" fill="white" transform="translate(0.5 0.5)"/>
</clipPath>
</defs>
</svg>
