<svg width="80" height="20" viewBox="0 0 80 20" fill="none" xmlns="http://www.w3.org/2000/svg">
<path d="M62.2286 19.9999V0.00012207H67.2829V19.9999H62.2286ZM74.1849 19.9999L68.6144 11.5761H74.1034L80.0001 19.9999H74.1849ZM66.0057 13.913V10.0272H70.7611C71.3589 10.0272 71.8752 9.90941 72.31 9.67391C72.7447 9.4384 73.0799 9.10326 73.3154 8.66848C73.569 8.23371 73.6958 7.72647 73.6958 7.14677C73.6958 6.54895 73.569 6.03265 73.3154 5.59787C73.0799 5.1631 72.7447 4.82796 72.31 4.59245C71.8752 4.35695 71.3589 4.2392 70.7611 4.2392H66.0057V0.00012207H70.4622C72.1832 0.00012207 73.6686 0.2628 74.9186 0.788156C76.1686 1.2954 77.1287 2.05626 77.799 3.07073C78.4693 4.0671 78.8044 5.30802 78.8044 6.79351V7.22829C78.8044 8.71378 78.4602 9.9547 77.7718 10.9511C77.1016 11.9293 76.1414 12.6721 74.8915 13.1793C73.6596 13.6684 72.1832 13.913 70.4622 13.913H66.0057Z" fill="#1B1E1D"/>
<path d="M35.3735 20V0.16333H42.3843L46.4603 10.6251H47.0038L51.0526 0.16333H58.1993V20H53.1994V3.0709L53.9874 3.12525L48.8788 16.0055H44.2864L39.1506 3.12525L39.993 3.0709V20H35.3735Z" fill="#1B1E1D"/>
<path d="M12.1119 20L18.4705 0.16333H26.5682L33.1442 20H27.9269L22.8183 3.69589L24.2585 4.23936H20.6716L22.1389 3.69589L17.1662 20H12.1119ZM17.302 15.4077L18.8238 11.2773H26.3508L27.8726 15.4077H17.302Z" fill="#1B1E1D"/>
<path d="M6.10352e-05 20V0.16333H5.05434V20H6.10352e-05ZM4.51087 12.3099V8.17953H11.8749V12.3099H4.51087ZM4.51087 4.29371V0.16333H12.1738V4.29371H4.51087Z" fill="#1B1E1D"/>
</svg>
