<svg width="32" height="32" viewBox="0 0 32 32" fill="none" xmlns="http://www.w3.org/2000/svg">
<rect x="0.25" y="0.25" width="31.5" height="31.5" rx="15.75" fill="#17332D"/>
<rect x="0.25" y="0.25" width="31.5" height="31.5" rx="15.75" stroke="#3F8D7C" stroke-width="0.5"/>
<path d="M22.6686 18.9999V13H24.1849V18.9999H22.6686ZM26.2555 18.9999L24.5843 16.4728H26.2311L28.0001 18.9999H26.2555ZM23.8017 17.1739V16.0081H25.2284C25.4077 16.0081 25.5626 15.9728 25.693 15.9021C25.8235 15.8315 25.924 15.7309 25.9947 15.6005C26.0707 15.4701 26.1088 15.3179 26.1088 15.144C26.1088 14.9647 26.0707 14.8098 25.9947 14.6793C25.924 14.5489 25.8235 14.4484 25.693 14.3777C25.5626 14.307 25.4077 14.2717 25.2284 14.2717H23.8017V13H25.1387C25.655 13 26.1006 13.0788 26.4756 13.2364C26.8506 13.3886 27.1387 13.6168 27.3398 13.9212C27.5408 14.2201 27.6414 14.5924 27.6414 15.038V15.1685C27.6414 15.6141 27.5381 15.9864 27.3316 16.2853C27.1305 16.5788 26.8425 16.8016 26.4675 16.9538C26.0979 17.1005 25.655 17.1739 25.1387 17.1739H23.8017Z" fill="white"/>
<path d="M14.6121 19V13.049H16.7153L17.9381 16.1875H18.1012L19.3158 13.049H21.4598V19H19.9599V13.9212L20.1963 13.9375L18.6637 17.8016H17.286L15.7452 13.9375L15.9979 13.9212V19H14.6121Z" fill="white"/>
<path d="M7.63358 19L9.54116 13.049H11.9705L13.9433 19H12.3781L10.8455 14.1087L11.2776 14.2718H10.2015L10.6417 14.1087L9.14986 19H7.63358ZM9.19062 17.6223L9.64714 16.3831H11.9053L12.3618 17.6223H9.19062Z" fill="white"/>
<path d="M4 19V13.049H5.51629V19H4ZM5.35324 16.6929V15.4538H7.56246V16.6929H5.35324ZM5.35324 14.2881V13.049H7.65213V14.2881H5.35324Z" fill="white"/>
</svg>
