<svg width="80" height="80" viewBox="0 0 80 80" fill="none" xmlns="http://www.w3.org/2000/svg">
<rect x="0.25" y="0.25" width="79.5" height="79.5" rx="39.75" fill="#224941"/>
<rect x="0.25" y="0.25" width="79.5" height="79.5" rx="39.75" stroke="#2C6156" stroke-width="0.5"/>
<path d="M47.9999 33.5468C47.9199 33.5334 47.8266 33.5334 47.7466 33.5468C45.9066 33.4801 44.4399 31.9734 44.4399 30.1068C44.4399 28.2001 45.9733 26.6667 47.8799 26.6667C49.7866 26.6667 51.3199 28.2134 51.3199 30.1068C51.3066 31.9734 49.8399 33.4801 47.9999 33.5468Z" stroke="white" stroke-width="1.5" stroke-linecap="round" stroke-linejoin="round"/>
<path d="M46.6267 43.2534C48.4533 43.5601 50.4667 43.2401 51.88 42.2934C53.76 41.0401 53.76 38.9867 51.88 37.7334C50.4533 36.7867 48.4133 36.4667 46.5867 36.7867" stroke="white" stroke-width="1.5" stroke-linecap="round" stroke-linejoin="round"/>
<path d="M31.9599 33.5468C32.0399 33.5334 32.1332 33.5334 32.2132 33.5468C34.0532 33.4801 35.5199 31.9734 35.5199 30.1068C35.5199 28.2001 33.9866 26.6667 32.0799 26.6667C30.1732 26.6667 28.6399 28.2134 28.6399 30.1068C28.6532 31.9734 30.1199 33.4801 31.9599 33.5468Z" stroke="white" stroke-width="1.5" stroke-linecap="round" stroke-linejoin="round"/>
<path d="M33.3333 43.2534C31.5066 43.5601 29.4933 43.2401 28.0799 42.2934C26.1999 41.0401 26.1999 38.9867 28.0799 37.7334C29.5066 36.7867 31.5466 36.4667 33.3733 36.7867" stroke="white" stroke-width="1.5" stroke-linecap="round" stroke-linejoin="round"/>
<path d="M39.9999 43.5067C39.9199 43.4934 39.8266 43.4934 39.7466 43.5067C37.9066 43.44 36.4399 41.9334 36.4399 40.0667C36.4399 38.16 37.9733 36.6267 39.8799 36.6267C41.7866 36.6267 43.3199 38.1734 43.3199 40.0667C43.3066 41.9334 41.8399 43.4534 39.9999 43.5067Z" stroke="white" stroke-width="1.5" stroke-linecap="round" stroke-linejoin="round"/>
<path d="M36.12 47.7067C34.24 48.9601 34.24 51.0134 36.12 52.2667C38.2533 53.6934 41.7466 53.6934 43.88 52.2667C45.76 51.0134 45.76 48.9601 43.88 47.7067C41.76 46.2934 38.2533 46.2934 36.12 47.7067Z" stroke="white" stroke-width="1.5" stroke-linecap="round" stroke-linejoin="round"/>
</svg>
