<svg width="80" height="80" viewBox="0 0 80 80" fill="none" xmlns="http://www.w3.org/2000/svg">
<rect x="0.25" y="0.25" width="79.5" height="79.5" rx="39.75" fill="#224941"/>
<rect x="0.25" y="0.25" width="79.5" height="79.5" rx="39.75" stroke="#2C6156" stroke-width="0.5"/>
<path d="M49.3334 36.0001C49.3334 37.9334 48.7601 39.7068 47.7734 41.1868C46.3334 43.3201 44.0534 44.8268 41.4001 45.2134C40.9467 45.2934 40.4801 45.3334 40.0001 45.3334C39.5201 45.3334 39.0534 45.2934 38.6001 45.2134C35.9467 44.8268 33.6667 43.3201 32.2267 41.1868C31.2401 39.7068 30.6667 37.9334 30.6667 36.0001C30.6667 30.8401 34.8401 26.6667 40.0001 26.6667C45.1601 26.6667 49.3334 30.8401 49.3334 36.0001Z" stroke="white" stroke-width="1.5" stroke-linecap="round" stroke-linejoin="round"/>
<path d="M52.3333 48.6266L50.1333 49.1466C49.6399 49.2666 49.2533 49.64 49.1466 50.1333L48.6799 52.0933C48.4266 53.16 47.0666 53.48 46.3599 52.64L39.9999 45.3333L33.6399 52.6533C32.9333 53.4933 31.5733 53.1733 31.3199 52.1066L30.8533 50.1466C30.7333 49.6533 30.3466 49.2666 29.8666 49.16L27.6666 48.64C26.6533 48.4 26.2933 47.1333 27.0266 46.3999L32.2266 41.2C33.6666 43.3333 35.9466 44.84 38.5999 45.2266C39.0533 45.3066 39.5199 45.3466 39.9999 45.3466C40.4799 45.3466 40.9466 45.3066 41.3999 45.2266C44.0533 44.84 46.3333 43.3333 47.7733 41.2L52.9733 46.3999C53.7066 47.1199 53.3466 48.3866 52.3333 48.6266Z" stroke="white" stroke-width="1.5" stroke-linecap="round" stroke-linejoin="round"/>
<path d="M40.7734 31.9733L41.56 33.5466C41.6667 33.7599 41.9467 33.9732 42.2 34.0132L43.6267 34.2532C44.5334 34.3999 44.7467 35.0666 44.0934 35.7199L42.9867 36.8266C42.8 37.0132 42.6934 37.3733 42.76 37.6399L43.08 39.0132C43.3334 40.0932 42.76 40.5199 41.8 39.9466L40.4667 39.1599C40.2267 39.0132 39.8267 39.0132 39.5867 39.1599L38.2534 39.9466C37.2934 40.5066 36.72 40.0932 36.9734 39.0132L37.2934 37.6399C37.3467 37.3866 37.2534 37.0132 37.0667 36.8266L35.96 35.7199C35.3067 35.0666 35.52 34.4132 36.4267 34.2532L37.8534 34.0132C38.0934 33.9732 38.3734 33.7599 38.48 33.5466L39.2667 31.9733C39.6534 31.1199 40.3467 31.1199 40.7734 31.9733Z" stroke="white" stroke-width="1.5" stroke-linecap="round" stroke-linejoin="round"/>
</svg>
