<svg width="80" height="80" viewBox="0 0 80 80" fill="none" xmlns="http://www.w3.org/2000/svg">
<rect x="0.25" y="0.25" width="79.5" height="79.5" rx="39.75" fill="#224941"/>
<rect x="0.25" y="0.25" width="79.5" height="79.5" rx="39.75" stroke="#2C6156" stroke-width="0.5"/>
<path d="M38.3333 27.2665C39.2533 26.4798 40.76 26.4798 41.6933 27.2665L43.8 29.08C44.2 29.4267 44.9467 29.7066 45.48 29.7066H47.7467C49.16 29.7066 50.32 30.8665 50.32 32.2799V34.5466C50.32 35.0666 50.6 35.8266 50.9467 36.2266L52.76 38.3332C53.5467 39.2532 53.5467 40.7599 52.76 41.6933L50.9467 43.7999C50.6 44.1999 50.32 44.9466 50.32 45.4799V47.7467C50.32 49.16 49.16 50.3199 47.7467 50.3199H45.48C44.96 50.3199 44.2 50.5999 43.8 50.9465L41.6933 52.7598C40.7733 53.5465 39.2667 53.5465 38.3333 52.7598L36.2267 50.9465C35.8267 50.5999 35.08 50.3199 34.5467 50.3199H32.24C30.8267 50.3199 29.6667 49.16 29.6667 47.7467V45.4665C29.6667 44.9465 29.3867 44.1999 29.0533 43.7999L27.2533 41.6799C26.48 40.7599 26.48 39.2666 27.2533 38.3466L29.0533 36.2266C29.3867 35.8266 29.6667 35.08 29.6667 34.56V32.2799C29.6667 30.8665 30.8267 29.7066 32.24 29.7066H34.5467C35.0667 29.7066 35.8267 29.4267 36.2267 29.08L38.3333 27.2665Z" stroke="white" stroke-width="1.5" stroke-linecap="round" stroke-linejoin="round"/>
<path d="M37.1866 43.7599L39.1199 45.2532C39.3732 45.5066 39.9333 45.6266 40.3066 45.6266H42.6666C43.4133 45.6266 44.2266 45.0666 44.4132 44.32L45.9066 39.7599C46.2132 38.8932 45.6533 38.1333 44.7199 38.1333H42.2266C41.8533 38.1333 41.5466 37.8267 41.5999 37.3867L41.9066 35.3867C42.0266 34.8267 41.6533 34.2 41.0933 34.0133C40.5999 33.8266 39.9733 34.0799 39.7199 34.4533L37.1599 38.2532" stroke="white" stroke-width="1.5" stroke-miterlimit="10"/>
<path d="M34 43.7598V37.6532C34 36.7732 34.3733 36.4666 35.2533 36.4666H35.88C36.7467 36.4666 37.1333 36.7732 37.1333 37.6532V43.7598C37.1333 44.6265 36.76 44.9465 35.88 44.9465H35.2533C34.3733 44.9465 34 44.6398 34 43.7598Z" stroke="white" stroke-width="1.5" stroke-linecap="round" stroke-linejoin="round"/>
</svg>
